<?xml version="1.0" encoding="utf-8"?>
<!-- Generator: Adobe Illustrator 23.0.0, SVG Export Plug-In . SVG Version: 6.00 Build 0)  -->
<svg version="1.1" id="Layer_1" xmlns="http://www.w3.org/2000/svg" xmlns:xlink="http://www.w3.org/1999/xlink" x="0px" y="0px"
	 viewBox="0 0 129 28" style="enable-background:new 0 0 129 28;" xml:space="preserve">
<style type="text/css">
	.st0{fill:#F2125E;}
</style>
<g>
	<path class="st0" d="M8.3,18.6c0.5,0,0.9,0,1.3-0.1c0.4-0.1,0.7-0.2,1.1-0.3v-2.3H9.2c-0.2,0-0.4-0.1-0.5-0.2
		c-0.1-0.1-0.2-0.3-0.2-0.4v-1.9h5.3v6.3c-0.4,0.3-0.8,0.5-1.2,0.7c-0.4,0.2-0.9,0.4-1.3,0.5s-1,0.2-1.5,0.3S8.7,21.2,8,21.2
		c-1.1,0-2.1-0.2-3.1-0.6c-0.9-0.4-1.7-0.9-2.4-1.6c-0.7-0.7-1.2-1.5-1.6-2.4c-0.4-0.9-0.6-2-0.6-3.1c0-1.1,0.2-2.2,0.6-3.1
		C1.3,9.5,1.8,8.7,2.5,8S4,6.8,5,6.4c1-0.4,2.1-0.6,3.3-0.6c0.6,0,1.2,0.1,1.8,0.2c0.6,0.1,1.1,0.2,1.5,0.4c0.5,0.2,0.9,0.4,1.3,0.6
		s0.7,0.5,1,0.8l-1,1.5c-0.1,0.1-0.2,0.3-0.3,0.3c-0.1,0.1-0.3,0.1-0.4,0.1c-0.2,0-0.4-0.1-0.6-0.2c-0.3-0.2-0.5-0.3-0.8-0.4
		C10.5,9.1,10.2,9,9.9,9C9.7,8.9,9.4,8.8,9.1,8.8c-0.3,0-0.6-0.1-0.9-0.1C7.5,8.8,7,8.9,6.4,9.1c-0.5,0.2-1,0.6-1.3,1
		c-0.4,0.4-0.7,0.9-0.9,1.5c-0.2,0.6-0.3,1.2-0.3,2c0,0.8,0.1,1.5,0.3,2.1s0.5,1.1,0.9,1.6c0.4,0.4,0.8,0.8,1.4,1S7.7,18.6,8.3,18.6
		z"/>
	<path class="st0" d="M23.3,21.1c-0.3,0-0.5,0-0.7-0.1c-0.2-0.1-0.3-0.3-0.4-0.5L22,19.8c-0.3,0.2-0.5,0.4-0.8,0.6
		c-0.2,0.2-0.5,0.3-0.8,0.4c-0.3,0.1-0.5,0.2-0.8,0.3c-0.3,0.1-0.6,0.1-1,0.1c-0.5,0-0.9-0.1-1.3-0.2s-0.7-0.3-1-0.6
		c-0.3-0.2-0.5-0.6-0.6-0.9s-0.2-0.8-0.2-1.3c0-0.4,0.1-0.8,0.3-1.2c0.2-0.4,0.5-0.8,1-1.1c0.5-0.3,1.1-0.6,1.9-0.8
		c0.8-0.2,1.8-0.3,3-0.3v-0.5c0-0.6-0.1-1.1-0.4-1.4c-0.3-0.3-0.6-0.4-1.1-0.4c-0.4,0-0.7,0-0.9,0.1s-0.5,0.2-0.6,0.3
		c-0.2,0.1-0.4,0.2-0.6,0.3c-0.2,0.1-0.4,0.1-0.6,0.1c-0.2,0-0.4-0.1-0.6-0.2c-0.2-0.1-0.3-0.2-0.4-0.4l-0.6-1
		c0.6-0.6,1.4-1,2.2-1.3c0.8-0.3,1.6-0.4,2.5-0.4c0.6,0,1.2,0.1,1.7,0.3s1,0.5,1.3,0.9c0.4,0.4,0.6,0.8,0.8,1.3
		c0.2,0.5,0.3,1.1,0.3,1.7v6.7H23.3z M19.6,19.1c0.4,0,0.8-0.1,1.1-0.2c0.3-0.1,0.6-0.4,0.9-0.7v-1.5c-0.6,0-1.2,0-1.6,0.1
		c-0.4,0.1-0.7,0.2-1,0.3s-0.4,0.3-0.5,0.4c-0.1,0.2-0.1,0.3-0.1,0.5c0,0.4,0.1,0.6,0.3,0.8C19,19.1,19.3,19.1,19.6,19.1z"/>
	<path class="st0" d="M27.1,21.1V10.4h2c0.2,0,0.4,0,0.5,0.1c0.1,0.1,0.2,0.2,0.3,0.4l0.2,0.6c0.2-0.2,0.4-0.4,0.6-0.5
		c0.2-0.2,0.5-0.3,0.7-0.4c0.3-0.1,0.5-0.2,0.8-0.3s0.6-0.1,1-0.1c0.6,0,1.1,0.1,1.6,0.3c0.5,0.2,0.8,0.5,1.1,0.8
		c0.3,0.4,0.5,0.8,0.7,1.3c0.2,0.5,0.2,1,0.2,1.6v6.8h-3.2v-6.8c0-0.5-0.1-0.9-0.4-1.2s-0.6-0.4-1.1-0.4c-0.4,0-0.7,0.1-1,0.2
		s-0.6,0.4-0.9,0.6v7.6H27.1z"/>
	<path class="st0" d="M46.5,21.1c-0.2,0-0.4,0-0.5-0.1c-0.1-0.1-0.2-0.2-0.3-0.4l-0.2-0.8c-0.2,0.2-0.4,0.4-0.7,0.6
		c-0.2,0.2-0.5,0.3-0.8,0.5s-0.6,0.2-0.9,0.3c-0.3,0.1-0.7,0.1-1,0.1c-0.6,0-1.1-0.1-1.5-0.4c-0.5-0.2-0.9-0.6-1.2-1.1
		c-0.3-0.5-0.6-1-0.8-1.7c-0.2-0.7-0.3-1.5-0.3-2.3c0-0.8,0.1-1.5,0.3-2.2c0.2-0.7,0.5-1.3,0.9-1.8c0.4-0.5,0.9-0.9,1.5-1.2
		c0.6-0.3,1.2-0.4,1.9-0.4c0.6,0,1,0.1,1.4,0.2s0.7,0.4,1,0.6V5.6h3.2v15.4H46.5z M43.3,18.8c0.2,0,0.4,0,0.6-0.1
		c0.2,0,0.4-0.1,0.5-0.2c0.2-0.1,0.3-0.2,0.4-0.3s0.3-0.3,0.4-0.4v-4.5c-0.2-0.3-0.5-0.5-0.8-0.6c-0.3-0.1-0.6-0.2-0.9-0.2
		c-0.3,0-0.6,0.1-0.8,0.2c-0.2,0.1-0.5,0.3-0.6,0.6c-0.2,0.3-0.3,0.6-0.4,1c-0.1,0.4-0.2,0.9-0.2,1.5c0,0.6,0,1,0.1,1.4
		s0.2,0.7,0.3,0.9s0.3,0.4,0.5,0.5C42.8,18.7,43,18.8,43.3,18.8z"/>
	<path class="st0" d="M55.6,10.2c0.7,0,1.4,0.1,1.9,0.3c0.6,0.2,1.1,0.5,1.5,1c0.4,0.4,0.8,0.9,1,1.5s0.4,1.3,0.4,2.1
		c0,0.2,0,0.4,0,0.6c0,0.2-0.1,0.3-0.1,0.4s-0.1,0.2-0.2,0.2c-0.1,0-0.2,0.1-0.4,0.1h-6.2c0.1,0.9,0.4,1.5,0.8,1.9
		c0.4,0.4,1,0.6,1.7,0.6c0.4,0,0.7,0,1-0.1c0.3-0.1,0.5-0.2,0.7-0.3c0.2-0.1,0.4-0.2,0.6-0.3c0.2-0.1,0.4-0.1,0.6-0.1
		c0.3,0,0.4,0.1,0.6,0.3l0.9,1.1c-0.3,0.4-0.7,0.7-1.1,0.9c-0.4,0.2-0.8,0.4-1.2,0.6c-0.4,0.1-0.8,0.2-1.2,0.3s-0.8,0.1-1.2,0.1
		c-0.7,0-1.5-0.1-2.1-0.4s-1.2-0.6-1.7-1.1c-0.5-0.5-0.9-1.1-1.2-1.8c-0.3-0.7-0.4-1.5-0.4-2.5c0-0.7,0.1-1.4,0.4-2
		c0.2-0.6,0.6-1.2,1.1-1.7s1-0.9,1.7-1.1C54,10.4,54.8,10.2,55.6,10.2z M55.6,12.4c-0.6,0-1.1,0.2-1.4,0.5c-0.3,0.3-0.6,0.8-0.7,1.5
		h4c0-0.3,0-0.5-0.1-0.7s-0.2-0.5-0.3-0.6c-0.1-0.2-0.3-0.3-0.6-0.5C56.3,12.5,56,12.4,55.6,12.4z"/>
	<path class="st0" d="M61,10.4h2.6c0.2,0,0.4,0.1,0.6,0.2c0.2,0.1,0.3,0.2,0.3,0.4l1.1,4.8c0.1,0.4,0.2,0.7,0.2,1.1
		c0.1,0.3,0.1,0.7,0.2,1c0.1-0.3,0.2-0.7,0.3-1c0.1-0.3,0.2-0.7,0.3-1.1l1.3-4.8c0-0.2,0.1-0.3,0.3-0.4c0.2-0.1,0.3-0.2,0.5-0.2h1.4
		c0.2,0,0.4,0.1,0.6,0.2c0.2,0.1,0.3,0.2,0.3,0.4l1.3,4.8c0.1,0.4,0.2,0.7,0.3,1.1c0.1,0.3,0.2,0.7,0.3,1c0.1-0.3,0.1-0.7,0.2-1
		s0.2-0.7,0.3-1.1l1.1-4.8c0-0.2,0.1-0.3,0.3-0.4c0.2-0.1,0.3-0.2,0.6-0.2h2.4l-3.3,10.7h-2.6c-0.1,0-0.3,0-0.4-0.1
		c-0.1-0.1-0.2-0.2-0.2-0.4l-1.5-5.3c-0.1-0.2-0.1-0.5-0.2-0.7c-0.1-0.2-0.1-0.5-0.2-0.7c0,0.2-0.1,0.5-0.2,0.7S69.1,15,69,15.2
		l-1.5,5.3c-0.1,0.4-0.3,0.5-0.7,0.5h-2.5L61,10.4z"/>
	<path class="st0" d="M86.4,21.1c-0.3,0-0.5,0-0.7-0.1c-0.2-0.1-0.3-0.3-0.4-0.5l-0.2-0.6c-0.3,0.2-0.5,0.4-0.8,0.6
		c-0.2,0.2-0.5,0.3-0.8,0.4c-0.3,0.1-0.5,0.2-0.8,0.3c-0.3,0.1-0.6,0.1-1,0.1c-0.5,0-0.9-0.1-1.3-0.2c-0.4-0.1-0.7-0.3-1-0.6
		c-0.3-0.2-0.5-0.6-0.6-0.9s-0.2-0.8-0.2-1.3c0-0.4,0.1-0.8,0.3-1.2c0.2-0.4,0.5-0.8,1-1.1s1.1-0.6,1.9-0.8c0.8-0.2,1.8-0.3,3-0.3
		v-0.5c0-0.6-0.1-1.1-0.4-1.4c-0.3-0.3-0.6-0.4-1.1-0.4c-0.4,0-0.7,0-0.9,0.1s-0.5,0.2-0.6,0.3c-0.2,0.1-0.4,0.2-0.6,0.3
		s-0.4,0.1-0.6,0.1c-0.2,0-0.4-0.1-0.6-0.2c-0.2-0.1-0.3-0.2-0.4-0.4l-0.6-1c0.6-0.6,1.4-1,2.2-1.3c0.8-0.3,1.6-0.4,2.5-0.4
		c0.6,0,1.2,0.1,1.7,0.3s1,0.5,1.3,0.9s0.6,0.8,0.8,1.3c0.2,0.5,0.3,1.1,0.3,1.7v6.7H86.4z M82.7,19.1c0.4,0,0.8-0.1,1.1-0.2
		s0.6-0.4,0.9-0.7v-1.5c-0.6,0-1.2,0-1.6,0.1c-0.4,0.1-0.7,0.2-1,0.3s-0.4,0.3-0.5,0.4c-0.1,0.2-0.1,0.3-0.1,0.5
		c0,0.4,0.1,0.6,0.3,0.8C82,19.1,82.3,19.1,82.7,19.1z"/>
	<path class="st0" d="M93.4,5.6v15.4h-3.2V5.6H93.4z"/>
	<path class="st0" d="M103.4,21.1c-0.3,0-0.5,0-0.7-0.1c-0.2-0.1-0.3-0.3-0.4-0.5l-0.2-0.6c-0.3,0.2-0.5,0.4-0.8,0.6
		c-0.2,0.2-0.5,0.3-0.8,0.4c-0.3,0.1-0.5,0.2-0.8,0.3c-0.3,0.1-0.6,0.1-1,0.1c-0.5,0-0.9-0.1-1.3-0.2c-0.4-0.1-0.7-0.3-1-0.6
		c-0.3-0.2-0.5-0.6-0.6-0.9s-0.2-0.8-0.2-1.3c0-0.4,0.1-0.8,0.3-1.2c0.2-0.4,0.5-0.8,1-1.1s1.1-0.6,1.9-0.8c0.8-0.2,1.8-0.3,3-0.3
		v-0.5c0-0.6-0.1-1.1-0.4-1.4c-0.3-0.3-0.6-0.4-1.1-0.4c-0.4,0-0.7,0-0.9,0.1s-0.5,0.2-0.6,0.3c-0.2,0.1-0.4,0.2-0.6,0.3
		s-0.4,0.1-0.6,0.1c-0.2,0-0.4-0.1-0.6-0.2c-0.2-0.1-0.3-0.2-0.4-0.4l-0.6-1c0.6-0.6,1.4-1,2.2-1.3c0.8-0.3,1.6-0.4,2.5-0.4
		c0.6,0,1.2,0.1,1.7,0.3s1,0.5,1.3,0.9s0.6,0.8,0.8,1.3c0.2,0.5,0.3,1.1,0.3,1.7v6.7H103.4z M99.7,19.1c0.4,0,0.8-0.1,1.1-0.2
		s0.6-0.4,0.9-0.7v-1.5c-0.6,0-1.2,0-1.6,0.1c-0.4,0.1-0.7,0.2-1,0.3s-0.4,0.3-0.5,0.4c-0.1,0.2-0.1,0.3-0.1,0.5
		c0,0.4,0.1,0.6,0.3,0.8C99.1,19.1,99.3,19.1,99.7,19.1z"/>
	<path class="st0" d="M107.1,21.1V10.4h2c0.2,0,0.4,0,0.5,0.1c0.1,0.1,0.2,0.2,0.3,0.4l0.2,0.6c0.2-0.2,0.4-0.4,0.6-0.5
		c0.2-0.2,0.5-0.3,0.7-0.4c0.3-0.1,0.5-0.2,0.8-0.3c0.3-0.1,0.6-0.1,1-0.1c0.6,0,1.1,0.1,1.6,0.3c0.5,0.2,0.8,0.5,1.1,0.8
		c0.3,0.4,0.5,0.8,0.7,1.3c0.2,0.5,0.2,1,0.2,1.6v6.8h-3.2v-6.8c0-0.5-0.1-0.9-0.4-1.2s-0.6-0.4-1.1-0.4c-0.4,0-0.7,0.1-1,0.2
		s-0.6,0.4-0.9,0.6v7.6H107.1z"/>
	<path class="st0" d="M126.5,21.1c-0.3,0-0.5,0-0.7-0.1c-0.2-0.1-0.3-0.3-0.4-0.5l-0.2-0.6c-0.3,0.2-0.5,0.4-0.8,0.6
		c-0.2,0.2-0.5,0.3-0.8,0.4c-0.3,0.1-0.5,0.2-0.8,0.3c-0.3,0.1-0.6,0.1-1,0.1c-0.5,0-0.9-0.1-1.3-0.2c-0.4-0.1-0.7-0.3-1-0.6
		c-0.3-0.2-0.5-0.6-0.6-0.9s-0.2-0.8-0.2-1.3c0-0.4,0.1-0.8,0.3-1.2c0.2-0.4,0.5-0.8,1-1.1s1.1-0.6,1.9-0.8c0.8-0.2,1.8-0.3,3-0.3
		v-0.5c0-0.6-0.1-1.1-0.4-1.4c-0.3-0.3-0.6-0.4-1.1-0.4c-0.4,0-0.7,0-0.9,0.1s-0.5,0.2-0.6,0.3c-0.2,0.1-0.4,0.2-0.6,0.3
		s-0.4,0.1-0.6,0.1c-0.2,0-0.4-0.1-0.6-0.2c-0.2-0.1-0.3-0.2-0.4-0.4l-0.6-1c0.6-0.6,1.4-1,2.2-1.3c0.8-0.3,1.6-0.4,2.5-0.4
		c0.6,0,1.2,0.1,1.7,0.3s1,0.5,1.3,0.9s0.6,0.8,0.8,1.3c0.2,0.5,0.3,1.1,0.3,1.7v6.7H126.5z M122.8,19.1c0.4,0,0.8-0.1,1.1-0.2
		s0.6-0.4,0.9-0.7v-1.5c-0.6,0-1.2,0-1.6,0.1c-0.4,0.1-0.7,0.2-1,0.3s-0.4,0.3-0.5,0.4c-0.1,0.2-0.1,0.3-0.1,0.5
		c0,0.4,0.1,0.6,0.3,0.8C122.2,19.1,122.4,19.1,122.8,19.1z"/>
</g>
</svg>
